<?xml version="1.0" standalone="no"?>
<svg viewBox="0 0 200 200" xmlns="http://www.w3.org/2000/svg">
  <path fill="#E23F0C" d="M34.9,-53.5C46.7,-46.8,58.8,-39.6,69.4,-28.2C80.1,-16.8,89.4,-1.3,87.1,12.3C84.9,26,71.1,37.8,58.2,47.5C45.3,57.3,33.3,64.9,19.4,71.5C5.5,78.1,-10.3,83.6,-23.8,80.1C-37.2,76.5,-48.2,63.9,-60,51.4C-71.7,38.8,-84.3,26.4,-86,12.5C-87.8,-1.3,-78.6,-16.5,-69.9,-30.4C-61.2,-44.3,-53,-56.9,-41.4,-63.7C-29.8,-70.5,-14.9,-71.6,-1.7,-69C11.6,-66.4,23.1,-60.2,34.9,-53.5Z" transform="translate(100 100)" />
</svg>
